PathFileType	4	(X/Y/Z)	C:\Users\Biomechanik\SynologyDrive\AlexP\Athlete_03\Athlete_3_25_03_31\Walking_10\marker_experimental.trc
DataRate	CameraRate	NumFrames	NumMarkers	Units	OrigDataRate	OrigDataStartFrame	OrigNumFrames
200.000000	200.000000	4	53	mm	200.000000	0	223
Frame#	Time	GLAB			RFHD			LFHD			C7			T6			SPINMOL			SPINM2			SPINM3			T12			BELTOL			BELT2			BELT3			SACROL			SACR2			SACR3			LTHOL			LTH2			LTH3			LSHAOL			LSHA2			LSHA3			LHEE			LTOE			LM5			RTHOL			RTH2			RTH3			RSHAOL			RSHA2			RSHA3			RHEE			RTOE			RM5			STRN			XIPH			LACR			LUAOL			LUA2			LUA3			LLAOL			LLA2			LLA3			LWRR			LWRU			RACR			RUAOL			RUA2			RUA3			RLAOL			RLA2			RLA3			RWRR			RWRU			
		X1	Y1	Z1	X2	Y2	Z2	X3	Y3	Z3	X4	Y4	Z4	X5	Y5	Z5	X6	Y6	Z6	X7	Y7	Z7	X8	Y8	Z8	X9	Y9	Z9	X10	Y10	Z10	X11	Y11	Z11	X12	Y12	Z12	X13	Y13	Z13	X14	Y14	Z14	X15	Y15	Z15	X16	Y16	Z16	X17	Y17	Z17	X18	Y18	Z18	X19	Y19	Z19	X20	Y20	Z20	X21	Y21	Z21	X22	Y22	Z22	X23	Y23	Z23	X24	Y24	Z24	X25	Y25	Z25	X26	Y26	Z26	X27	Y27	Z27	X28	Y28	Z28	X29	Y29	Z29	X30	Y30	Z30	X31	Y31	Z31	X32	Y32	Z32	X33	Y33	Z33	X34	Y34	Z34	X35	Y35	Z35	X36	Y36	Z36	X37	Y37	Z37	X38	Y38	Z38	X39	Y39	Z39	X40	Y40	Z40	X41	Y41	Z41	X42	Y42	Z42	X43	Y43	Z43	X44	Y44	Z44	X45	Y45	Z45	X46	Y46	Z46	X47	Y47	Z47	X48	Y48	Z48	X49	Y49	Z49	X50	Y50	Z50	X51	Y51	Z51	X52	Y52	Z52	X53	Y53	Z53	

1	0	-516.5474853515626	1559.685180664062	219.3320007324218	-569.1192016601564	1583.027587890625	283.3424682617186	-558.3949584960939	1585.941772460938	146.0524597167968	-746.0678710937501	1404.281005859375	197.5889587402342	-809.8333129882814	1238.83740234375	192.5790100097655	-819.5842895507814	1198.792602539062	171.3665161132811	-824.1696777343751	1191.740966796875	221.1354522705077	-817.1218872070314	1134.707641601562	187.5388031005858	-795.5014038085939	1067.752685546875	190.9573516845702	-834.3184814453126	1034.221313476562	183.002243041992	-829.2944946289064	1030.3173828125	233.0511474609374	-839.6819458007814	971.5731201171875	202.9509277343749	-825.4898681640626	930.5542602539062	187.561325073242	-814.8652954101562	922.6691284179688	237.1473541259764	-841.6010131835938	869.3399047851562	208.3011169433592	-817.9132690429688	671.6837158203125	13.77805423736557	-876.8076782226562	635.3654174804688	53.17906951904281	-836.491943359375	615.8111572265625	31.8340339660643	-952.1193237304688	341.9479064941406	39.31190109252912	-1021.084350585938	306.8748779296874	52.02555465698224	-972.5551147460938	286.8712768554687	48.80236434936506	-1120.7138671875	138.285171508789	148.096725463867	-925.5662841796875	38.71147155761713	149.9048919677733	-972.189697265625	30.93186378478998	49.00608444213849	-632.4967041015626	637.9412231445312	376.1256713867186	-558.3074340820314	613.00048828125	387.6732482910155	-597.8201904296876	590.4522705078125	366.2767639160155	-499.7000427246094	317.1891479492187	365.8825073242186	-438.5394897460938	266.6552124023438	370.2740783691406	-484.8153686523438	258.5090026855468	353.1931152343749	-408.6271057128907	44.95917129516599	260.5874023437499	-216.5667877197266	128.7372741699219	266.9235229492187	-247.0749053955079	84.96116638183592	367.2621154785156	-579.4997558593751	1293.743286132812	199.2285156249999	-568.1417846679689	1150.897216796875	192.2669372558593	-665.3726806640626	1367.62646484375	25.79778480529773	-645.3477172851564	1222.244995117188	-78.73352813720714	-645.1149902343751	1160.091064453125	-99.86611175537121	-602.4731445312501	1173.71728515625	-77.18958282470714	-519.7916259765626	989.8508911132812	-120.0468215942384	-512.1239624023438	913.615966796875	-101.1752395629884	-476.2489318847657	948.5164794921875	-108.8068923950196	-396.1408691406251	885.5924072265625	-88.21977233886726	-381.2070007324219	921.7877807617188	-19.14748954772956	-667.369323730469	1348.585205078125	369.1129455566405	-720.4111938476565	1206.80078125	462.6243896484374	-711.771179199219	1142.539672851562	476.6791992187499	-761.0322265625002	1156.830322265625	479.192901611328	-775.6079711914065	938.47705078125	523.2240600585936	-738.1225585937501	881.8259887695312	563.1715087890624	-775.2755737304689	876.1267700195312	530.9288330078124	-754.6223144531251	790.9134521484375	555.6043090820311	-702.8109741210939	766.4705810546875	496.9770202636718	
2	0.005	-512.3535766601564	1559.496948242188	220.1044006347655	-564.8976440429689	1582.828491210938	284.1415100097655	-554.2108764648439	1585.788330078125	146.8468627929686	-741.8936767578126	1404.089721679688	198.4086608886717	-805.5891723632814	1238.611450195312	193.2003173828124	-815.3322143554689	1198.58544921875	171.9496765136717	-819.9068603515626	1191.491333007812	221.7145385742186	-812.8519287109376	1134.4873046875	188.0701751708983	-791.1431884765626	1067.515014648438	191.4095764160155	-829.8858032226564	1033.791381835938	183.3871459960936	-824.8779296875001	1029.905639648438	233.4366607666014	-835.1586914062501	971.1369018554688	203.3446502685545	-821.0188598632814	930.2140502929688	187.8829040527342	-810.3668823242188	922.362548828125	237.4718627929686	-836.9627685546875	868.9608154296875	208.6289978027342	-813.6453857421875	671.60302734375	13.94330596923813	-872.4881591796875	635.3057861328125	53.46980667114241	-832.2283935546875	615.7301025390625	32.03653335571273	-948.9450073242188	342.6374816894531	39.16110992431623	-1018.182434082031	308.1469421386718	51.84479141235333	-970.1369018554688	287.6741638183593	48.87924575805646	-1118.861450195312	140.6289825439453	147.9731597900389	-925.586181640625	38.4713516235351	149.9862365722655	-971.822021484375	31.04167366027826	48.95829772949201	-627.3841552734376	638.2312622070312	376.528350830078	-553.0884399414064	613.4185791015625	387.5103759765624	-592.7368774414064	590.6845092773438	366.6473999023436	-495.8831176757813	317.0902099609374	365.9542236328124	-435.2107238769532	266.174072265625	370.0942993164062	-481.5793762207032	258.3194274902343	353.2518615722655	-407.6737365722657	44.58855438232419	260.4110717773437	-214.9060516357422	125.964126586914	266.3422546386718	-245.6444854736329	82.78031158447264	366.7334594726562	-575.2670898437501	1293.602294921875	199.9188690185546	-563.7982788085939	1150.808227539062	192.8229522705077	-661.1213989257814	1367.59716796875	26.60381507873523	-641.0624389648439	1222.362548828125	-78.03336334228527	-640.9119873046876	1160.259399414062	-99.29608917236339	-598.3124389648439	1173.732299804688	-76.47920227050793	-515.9055175781251	989.8631591796875	-119.6576919555665	-508.1784667968751	913.5923461914062	-100.8348693847657	-472.3715209960938	948.519775390625	-108.4201889038087	-392.2304382324219	885.583984375	-87.9044265747071	-377.3250427246094	921.7108154296875	-18.76964759826667	-663.134460449219	1348.236206054688	369.8523864746093	-716.1348876953127	1206.297119140625	463.208282470703	-707.479675292969	1142.004760742188	477.1416015624999	-756.7366333007815	1156.311279296875	479.7134704589843	-771.4196777343752	937.9256591796875	523.4169311523436	-734.0087280273439	881.1861572265625	563.3177490234374	-771.1632690429689	875.57373046875	531.0603027343749	-750.5845336914064	790.3111572265625	555.6323852539061	-698.8704223632814	765.8528442382812	496.9699707031249	
3	0.01	-507.5333862304689	1559.311767578125	220.9909362792968	-560.0422363281251	1582.636108398438	285.057159423828	-549.4027709960939	1585.641723632812	147.7582092285155	-737.0981445312501	1403.89892578125	199.3565063476561	-800.7024536132814	1238.376708984375	193.9202575683592	-810.4334716796876	1198.370971679688	172.6248779296874	-814.9965820312501	1191.2275390625	222.3846435546874	-807.9267578125001	1134.257934570312	188.686080932617	-786.1213989257814	1067.267944335938	191.9313659667967	-824.7504882812501	1033.330688476562	183.8202972412108	-819.7685546875001	1029.467041015625	233.8719177246092	-829.9214477539064	970.6697387695312	203.789093017578	-815.8656616210939	929.844482421875	188.2554473876952	-805.1826171875	922.0430908203125	237.8490447998045	-831.603515625	868.5480346679688	209.0199737548827	-808.6797485351562	671.5055541992188	14.14627265930161	-867.4443359375	635.2140502929688	53.82456970214828	-827.2518920898438	615.6261596679688	32.2759513854979	-945.197265625	343.4495849609374	38.98426055908186	-1014.755737304688	309.6302490234374	51.67787170410138	-967.2076416015625	288.6311950683593	48.9406204223631	-1116.564086914062	143.3707122802734	147.8519287109373	-925.6093139648438	38.20697784423822	150.0897216796873	-971.388427734375	31.18738937377924	48.91429138183576	-621.5715332031251	638.5603637695312	376.9783325195311	-547.1863403320314	613.878662109375	387.3422851562499	-586.9860229492189	590.9501342773438	367.0626831054686	-491.5514831542969	317.0151062011718	366.0558471679686	-431.4165649414063	265.650390625	369.9141540527343	-477.8941955566407	258.1450195312499	353.3327026367186	-406.5913085937501	44.26779556274411	260.2464294433593	-213.0121459960938	122.8069763183594	265.7163696289062	-244.0274505615235	80.30131530761717	366.1609802246093	-570.3989868164064	1293.479858398438	200.7168426513671	-558.7894897460939	1150.74560546875	193.4728088378905	-656.2402343750001	1367.589111328125	27.53137779235828	-636.1515502929689	1222.515258789062	-77.22640991210949	-636.0968627929689	1160.471435546875	-98.64228057861339	-593.5471191406251	1173.766479492188	-75.66321563720714	-511.4781799316407	989.8829956054688	-119.2084121704103	-503.6968383789063	913.5695190429688	-100.4503097534181	-467.9585571289063	948.5219116210938	-107.9826278686524	-387.7916870117188	885.5589599609375	-87.55589294433601	-372.9108581542969	921.5979614257812	-18.34715270996101	-658.263854980469	1347.863159179688	370.7076110839843	-711.2036132812502	1205.739868164062	463.8830566406249	-702.5274658203127	1141.41455078125	477.6779479980468	-751.7820434570315	1155.730834960938	480.3180236816405	-766.5718383789065	937.3096313476562	523.6407470703124	-729.2438964843751	880.4686889648438	563.4833374023436	-766.4014282226564	874.955322265625	531.2108764648436	-745.9084472656251	789.6368408203125	555.6635131835936	-694.3103637695314	765.1660766601562	496.9521179199218	
4	0.015	-502.1250915527345	1559.140747070312	221.9839630126952	-554.5905151367189	1582.463256835938	286.081329345703	-544.0089721679689	1585.512451171875	148.778594970703	-731.7198486328126	1403.71923828125	200.4264526367186	-795.2094116210939	1238.143188476562	194.7344360351561	-804.9234619140626	1198.158203125	173.3877868652342	-809.4745483398439	1190.958984375	223.141387939453	-802.3801879882814	1134.028930664062	189.3824920654295	-780.4724731445314	1067.021606445312	192.5182952880858	-818.9417724609376	1032.854248046875	184.2952575683592	-813.9976196289064	1029.016723632812	234.3507080078124	-824.0015869140626	970.1871337890625	204.2779083251952	-810.0675048828126	929.4552612304688	188.6762237548827	-799.3505859375	921.7235107421875	238.2765350341795	-825.5579223632812	868.1119995117188	209.474639892578	-803.0366821289062	671.3895874023438	14.38903713226304	-861.69140625	635.0828857421875	54.24631881713852	-821.5782470703125	615.49609375	32.55176925659165	-940.8738403320312	344.3833007812499	38.78143692016585	-1010.79833984375	311.3195800781249	51.53615188598614	-963.7509765625	289.7433776855468	48.98206710815412	-1113.7861328125	146.5029754638671	147.7397308349607	-925.6339721679688	37.92506027221674	150.2174987792967	-970.8886108398438	31.37505149841303	48.87807846069318	-615.1285400390626	638.9273681640625	377.4682617187499	-540.6775512695314	614.3723754882812	387.1782226562499	-580.6409912109376	591.2481689453125	367.5165710449218	-486.7546386718751	316.9777221679687	366.1940917968749	-427.1993103027344	265.1029052734375	369.7504272460937	-473.7978820800782	258.0025024414062	353.4415588378905	-405.3912048339844	44.02884674072263	260.1054992675781	-210.9042053222657	119.302131652832	265.0648498535156	-242.2453765869141	77.55369567871092	365.5603942871093	-564.9332275390626	1293.389038085938	201.6173858642577	-553.1503906250001	1150.72216796875	194.2144165039061	-650.7695922851564	1367.610595703125	28.57301712036121	-630.6586914062501	1222.70751953125	-76.31868743896496	-630.7130126953126	1160.73095703125	-97.91033172607433	-588.2201538085939	1173.824829101562	-74.74862670898449	-506.5563049316407	989.9119262695312	-118.7026672363282	-498.7308959960938	913.549072265625	-100.0263671875001	-463.0581054687501	948.522216796875	-107.4999542236329	-382.8769226074219	885.5127563476562	-87.18104553222663	-368.0137939453126	921.4426879882812	-17.88718795776374	-652.7949218750002	1347.4775390625	371.6733093261718	-705.651306152344	1205.14013671875	464.6442565917968	-696.9471435546877	1140.781005859375	478.2846374511718	-746.2017211914065	1155.098876953125	481.0033874511718	-761.0920410156252	936.6395874023438	523.8945312499999	-723.8541870117189	879.6849975585938	563.6660156249999	-761.0167236328126	874.2820434570312	531.3793334960936	-740.6199340820314	788.9014282226562	555.6968383789061	-689.1571044921876	764.4230346679688	496.9208984374999	
